# xmcd CD database file
#
# Track frame offsets:
#	150
#	16012
#	36255
#	52142
#
# Disc length: 963 seconds
#
# Revision: 0
# Processed by: cddbd v1.5.1PL2 Copyright (c) Steve Scherf et al.
# Submitted via: CDex 1.51
#
DISCID=2b03c104
DTITLE=Λucifer - ハイパーソニック　ソウル
DYEAR=1900
DGENRE=Rock
TTITLE0=ハイパーソニック　ソウル
TTITLE1=CASTAWAYS
TTITLE2=ハイパーソニック　ソウル(off vocal version)
TTITLE3=CASTAWAYS(off vocal version)
EXTD=
EXTT0=
EXTT1=
EXTT2=
EXTT3=
PLAYORDER=
